<svg xmlns="http://www.w3.org/2000/svg" width="2560" height="1440" viewBox="0 0 2560 1440">
    <defs>
      <linearGradient id="bg" x1="0" y1="0" x2="1" y2="1">
        <stop offset="0%" stop-color="#0F1020"/><stop offset="52%" stop-color="#27296D"/><stop offset="100%" stop-color="#0F1020"/>
      </linearGradient>
      <radialGradient id="r1"><stop offset="0%" stop-color="#5E63B6" stop-opacity=".95"/><stop offset="100%" stop-color="#5E63B6" stop-opacity="0"/></radialGradient>
      <radialGradient id="r2"><stop offset="0%" stop-color="#A393EB" stop-opacity=".82"/><stop offset="100%" stop-color="#A393EB" stop-opacity="0"/></radialGradient>
      <linearGradient id="g1" x1="0" y1="0" x2="1" y2="0"><stop stop-color="#5E63B6"/><stop offset="1" stop-color="#A393EB"/></linearGradient>
      <filter id="blur"><feGaussianBlur stdDeviation="67.4"/></filter>
      <filter id="blur2"><feGaussianBlur stdDeviation="34.1"/></filter>
      <filter id="grain">
        <feTurbulence type="fractalNoise" baseFrequency=".9" numOctaves="3" seed="948"/>
        <feColorMatrix type="saturate" values="0"/>
      </filter>
    </defs><rect width="2560" height="1440" fill="url(#bg)"/><rect x="1069" y="1332" width="97" height="393" rx="44" fill="#5E63B6" opacity="0.32" transform="rotate(-10.4 1069 1332)" filter="url(#blur2)"/><rect x="704" y="788" width="78" height="493" rx="35" fill="#A393EB" opacity="0.28" transform="rotate(33.5 704 788)" filter="url(#blur2)"/><rect x="1061" y="1053" width="140" height="476" rx="63" fill="#5E63B6" opacity="0.38" transform="rotate(-0.3 1061 1053)" filter="url(#blur2)"/><rect x="1652" y="114" width="49" height="832" rx="22" fill="#A393EB" opacity="0.16" transform="rotate(-6.7 1652 114)" filter="url(#blur2)"/><rect x="308" y="840" width="66" height="528" rx="30" fill="#5E63B6" opacity="0.27" transform="rotate(-19.6 308 840)" filter="url(#blur2)"/><rect x="-211" y="649" width="100" height="491" rx="45" fill="#A393EB" opacity="0.12" transform="rotate(20.2 -211 649)" filter="url(#blur2)"/><rect x="1792" y="-62" width="118" height="329" rx="53" fill="#5E63B6" opacity="0.16" transform="rotate(-17.0 1792 -62)" filter="url(#blur2)"/><rect x="958" y="538" width="110" height="801" rx="50" fill="#A393EB" opacity="0.40" transform="rotate(-32.8 958 538)" filter="url(#blur2)"/><rect x="457" y="1131" width="182" height="317" rx="82" fill="#5E63B6" opacity="0.36" transform="rotate(-21.0 457 1131)" filter="url(#blur2)"/><rect x="2245" y="958" width="47" height="775" rx="21" fill="#A393EB" opacity="0.35" transform="rotate(13.2 2245 958)" filter="url(#blur2)"/><rect x="1998" y="1208" width="73" height="670" rx="33" fill="#5E63B6" opacity="0.27" transform="rotate(24.1 1998 1208)" filter="url(#blur2)"/><rect x="1850" y="1302" width="63" height="681" rx="28" fill="#A393EB" opacity="0.42" transform="rotate(-17.6 1850 1302)" filter="url(#blur2)"/><rect x="795" y="571" width="65" height="529" rx="29" fill="#5E63B6" opacity="0.42" transform="rotate(-34.0 795 571)" filter="url(#blur2)"/><rect x="667" y="457" width="120" height="690" rx="54" fill="#A393EB" opacity="0.31" transform="rotate(7.0 667 457)" filter="url(#blur2)"/><rect width="2560" height="1440" filter="url(#grain)" opacity=".045" style="mix-blend-mode:soft-light"/></svg>