<svg xmlns="http://www.w3.org/2000/svg" width="1440" height="3200" viewBox="0 0 1440 3200">
    <defs>
      <linearGradient id="bg" x1="0" y1="0" x2="1" y2="1">
        <stop offset="0%" stop-color="#15100A"/><stop offset="52%" stop-color="#513C2C"/><stop offset="100%" stop-color="#15100A"/>
      </linearGradient>
      <radialGradient id="r1"><stop offset="0%" stop-color="#B86F52" stop-opacity=".95"/><stop offset="100%" stop-color="#B86F52" stop-opacity="0"/></radialGradient>
      <radialGradient id="r2"><stop offset="0%" stop-color="#FFD6A5" stop-opacity=".82"/><stop offset="100%" stop-color="#FFD6A5" stop-opacity="0"/></radialGradient>
      <linearGradient id="g1" x1="0" y1="0" x2="1" y2="0"><stop stop-color="#B86F52"/><stop offset="1" stop-color="#FFD6A5"/></linearGradient>
      <filter id="blur"><feGaussianBlur stdDeviation="84.2"/></filter>
      <filter id="blur2"><feGaussianBlur stdDeviation="42.7"/></filter>
      <filter id="grain">
        <feTurbulence type="fractalNoise" baseFrequency=".9" numOctaves="3" seed="179"/>
        <feColorMatrix type="saturate" values="0"/>
      </filter>
    </defs><rect width="1440" height="3200" fill="url(#bg)"/><path d="M 1055.4 2755.9 Q 1055.4 2755.9 999.0 2911.9 Q 942.6 3067.8 868.0 3104.2 Q 793.4 3140.7 713.6 3115.2 Q 633.7 3089.7 585.3 2922.8 Q 536.9 2755.9 574.6 2566.5 Q 612.2 2377.1 702.8 2326.3 Q 793.4 2275.5 855.8 2385.4 Q 918.1 2495.3 986.7 2625.6 Z" fill="#513C2C" opacity="0.22" filter="url(#blur2)"/><path d="M 1303.5 2799.0 Q 1303.5 2799.0 1296.5 2964.4 Q 1289.5 3129.8 1193.7 3157.1 Q 1097.9 3184.4 1004.4 3153.0 Q 911.0 3121.6 904.5 2960.3 Q 898.1 2799.0 917.0 2659.2 Q 935.9 2519.4 1016.9 2476.0 Q 1097.9 2432.5 1180.7 2472.7 Q 1263.6 2512.8 1283.5 2655.9 Z" fill="#B86F52" opacity="0.29" filter="url(#blur2)"/><path d="M 1120.9 2280.5 Q 1120.9 2280.5 1056.4 2489.8 Q 992.0 2699.2 878.6 2814.5 Q 765.3 2929.8 641.8 2833.3 Q 518.3 2736.9 499.9 2508.7 Q 481.5 2280.5 485.4 2025.6 Q 489.3 1770.6 627.3 1632.2 Q 765.3 1493.7 916.3 1608.1 Q 1067.3 1722.6 1094.1 2001.5 Z" fill="#FFD6A5" opacity="0.36" filter="url(#blur2)"/><path d="M 769.3 2676.0 Q 769.3 2676.0 714.4 2794.0 Q 659.4 2912.0 593.7 3035.8 Q 528.0 3159.6 458.0 3043.4 Q 388.1 2927.2 331.4 2801.6 Q 274.7 2676.0 313.2 2517.6 Q 351.6 2359.2 439.8 2271.0 Q 528.0 2182.8 593.2 2312.3 Q 658.4 2441.7 713.8 2558.8 Z" fill="#513C2C" opacity="0.43" filter="url(#blur2)"/><path d="M 1488.6 2030.9 Q 1488.6 2030.9 1441.5 2268.5 Q 1394.3 2506.1 1268.9 2538.6 Q 1143.6 2571.1 1060.5 2458.4 Q 977.4 2345.7 881.7 2188.3 Q 785.9 2030.9 860.9 1834.0 Q 935.8 1637.1 1039.7 1610.0 Q 1143.6 1582.8 1261.8 1582.9 Q 1379.9 1583.0 1434.3 1807.0 Z" fill="#B86F52" opacity="0.50" filter="url(#blur2)"/><path d="M 1249.5 585.8 Q 1249.5 585.8 1159.2 704.9 Q 1068.9 823.9 935.2 873.4 Q 801.5 923.0 634.1 903.4 Q 466.8 883.8 396.7 734.8 Q 326.7 585.8 411.3 449.8 Q 496.0 313.9 648.7 304.8 Q 801.5 295.7 951.0 307.6 Q 1100.5 319.5 1175.0 452.7 Z" fill="#FFD6A5" opacity="0.57" filter="url(#blur2)"/><path d="M 591.9 2050.1 Q 591.9 2050.1 556.5 2292.5 Q 521.1 2534.8 413.6 2573.3 Q 306.0 2611.7 221.6 2521.2 Q 137.2 2430.6 91.6 2240.4 Q 46.0 2050.1 89.8 1856.0 Q 133.7 1661.8 219.9 1537.8 Q 306.0 1413.7 408.5 1501.0 Q 511.0 1588.2 551.4 1819.2 Z" fill="#513C2C" opacity="0.64" filter="url(#blur2)"/><rect width="1440" height="3200" filter="url(#grain)" opacity=".045" style="mix-blend-mode:soft-light"/></svg>