<svg xmlns="http://www.w3.org/2000/svg" width="2560" height="1440" viewBox="0 0 2560 1440">
    <defs>
      <linearGradient id="bg" x1="0" y1="0" x2="1" y2="1">
        <stop offset="0%" stop-color="#11131A"/><stop offset="52%" stop-color="#232946"/><stop offset="100%" stop-color="#11131A"/>
      </linearGradient>
      <radialGradient id="r1"><stop offset="0%" stop-color="#B8C1EC" stop-opacity=".95"/><stop offset="100%" stop-color="#B8C1EC" stop-opacity="0"/></radialGradient>
      <radialGradient id="r2"><stop offset="0%" stop-color="#EEBBC3" stop-opacity=".82"/><stop offset="100%" stop-color="#EEBBC3" stop-opacity="0"/></radialGradient>
      <linearGradient id="g1" x1="0" y1="0" x2="1" y2="0"><stop stop-color="#B8C1EC"/><stop offset="1" stop-color="#EEBBC3"/></linearGradient>
      <filter id="blur"><feGaussianBlur stdDeviation="67.4"/></filter>
      <filter id="blur2"><feGaussianBlur stdDeviation="34.1"/></filter>
      <filter id="grain">
        <feTurbulence type="fractalNoise" baseFrequency=".9" numOctaves="3" seed="518"/>
        <feColorMatrix type="saturate" values="0"/>
      </filter>
    </defs><rect width="2560" height="1440" fill="url(#bg)"/><path d="M 0.0 342.6 Q 160.0 342.6 320.0 336.0 Q 480.0 336.0 640.0 233.9 Q 800.0 233.9 960.0 113.6 Q 1120.0 113.6 1280.0 66.1 Q 1440.0 66.1 1600.0 127.3 Q 1760.0 127.3 1920.0 251.0 Q 2080.0 251.0 2240.0 343.5 Q 2400.0 343.5 2560.0 334.8" fill="none" stroke="#B8C1EC" stroke-width="144" stroke-linecap="round" opacity=".32" filter="url(#blur)"/><path d="M 0.0 379.4 Q 160.0 379.4 320.0 349.0 Q 480.0 349.0 640.0 425.3 Q 800.0 425.3 960.0 550.5 Q 1120.0 550.5 1280.0 630.0 Q 1440.0 630.0 1600.0 603.5 Q 1760.0 603.5 1920.0 491.1 Q 2080.0 491.1 2240.0 377.9 Q 2400.0 377.9 2560.0 349.5" fill="none" stroke="#EEBBC3" stroke-width="144" stroke-linecap="round" opacity=".32" filter="url(#blur)"/><path d="M 0.0 937.0 Q 160.0 937.0 320.0 993.0 Q 480.0 993.0 640.0 940.1 Q 800.0 940.1 960.0 818.3 Q 1120.0 818.3 1280.0 719.7 Q 1440.0 719.7 1600.0 719.0 Q 1760.0 719.0 1920.0 816.7 Q 2080.0 816.7 2240.0 938.9 Q 2400.0 938.9 2560.0 993.0" fill="none" stroke="#B8C1EC" stroke-width="144" stroke-linecap="round" opacity=".32" filter="url(#blur)"/><path d="M 0.0 1243.9 Q 160.0 1243.9 320.0 1121.1 Q 480.0 1121.1 640.0 1025.2 Q 800.0 1025.2 960.0 1028.7 Q 1120.0 1028.7 1280.0 1128.9 Q 1440.0 1128.9 1600.0 1250.1 Q 1760.0 1250.1 1920.0 1300.4 Q 2080.0 1300.4 2240.0 1241.9 Q 2400.0 1241.9 2560.0 1118.8" fill="none" stroke="#EEBBC3" stroke-width="144" stroke-linecap="round" opacity=".32" filter="url(#blur)"/><rect width="2560" height="1440" filter="url(#grain)" opacity=".045" style="mix-blend-mode:soft-light"/></svg>