<svg xmlns="http://www.w3.org/2000/svg" width="2560" height="1440" viewBox="0 0 2560 1440">
    <defs>
      <linearGradient id="bg" x1="0" y1="0" x2="1" y2="1">
        <stop offset="0%" stop-color="#15100A"/><stop offset="52%" stop-color="#513C2C"/><stop offset="100%" stop-color="#15100A"/>
      </linearGradient>
      <radialGradient id="r1"><stop offset="0%" stop-color="#B86F52" stop-opacity=".95"/><stop offset="100%" stop-color="#B86F52" stop-opacity="0"/></radialGradient>
      <radialGradient id="r2"><stop offset="0%" stop-color="#FFD6A5" stop-opacity=".82"/><stop offset="100%" stop-color="#FFD6A5" stop-opacity="0"/></radialGradient>
      <linearGradient id="g1" x1="0" y1="0" x2="1" y2="0"><stop stop-color="#B86F52"/><stop offset="1" stop-color="#FFD6A5"/></linearGradient>
      <filter id="blur"><feGaussianBlur stdDeviation="67.4"/></filter>
      <filter id="blur2"><feGaussianBlur stdDeviation="34.1"/></filter>
      <filter id="grain">
        <feTurbulence type="fractalNoise" baseFrequency=".9" numOctaves="3" seed="592"/>
        <feColorMatrix type="saturate" values="0"/>
      </filter>
    </defs><rect width="2560" height="1440" fill="url(#bg)"/><rect x="1026" y="686" width="67" height="811" rx="30" fill="#B86F52" opacity="0.36" transform="rotate(-17.5 1026 686)" filter="url(#blur2)"/><rect x="940" y="1138" width="99" height="594" rx="45" fill="#FFD6A5" opacity="0.41" transform="rotate(-31.8 940 1138)" filter="url(#blur2)"/><rect x="1781" y="1274" width="127" height="741" rx="57" fill="#B86F52" opacity="0.18" transform="rotate(26.6 1781 1274)" filter="url(#blur2)"/><rect x="375" y="269" width="68" height="732" rx="30" fill="#FFD6A5" opacity="0.36" transform="rotate(10.2 375 269)" filter="url(#blur2)"/><rect x="-3" y="219" width="102" height="519" rx="46" fill="#B86F52" opacity="0.31" transform="rotate(14.0 -3 219)" filter="url(#blur2)"/><rect x="1439" y="1322" width="135" height="833" rx="61" fill="#FFD6A5" opacity="0.15" transform="rotate(-12.6 1439 1322)" filter="url(#blur2)"/><rect x="283" y="1234" width="80" height="479" rx="36" fill="#B86F52" opacity="0.40" transform="rotate(-30.8 283 1234)" filter="url(#blur2)"/><rect x="964" y="333" width="157" height="379" rx="71" fill="#FFD6A5" opacity="0.21" transform="rotate(32.0 964 333)" filter="url(#blur2)"/><rect x="157" y="607" width="151" height="857" rx="68" fill="#B86F52" opacity="0.31" transform="rotate(9.4 157 607)" filter="url(#blur2)"/><rect x="1970" y="151" width="74" height="449" rx="33" fill="#FFD6A5" opacity="0.21" transform="rotate(-21.6 1970 151)" filter="url(#blur2)"/><rect x="1343" y="264" width="117" height="384" rx="53" fill="#B86F52" opacity="0.16" transform="rotate(11.2 1343 264)" filter="url(#blur2)"/><rect x="143" y="1291" width="115" height="398" rx="52" fill="#FFD6A5" opacity="0.19" transform="rotate(10.4 143 1291)" filter="url(#blur2)"/><rect x="-149" y="594" width="160" height="768" rx="72" fill="#B86F52" opacity="0.11" transform="rotate(12.5 -149 594)" filter="url(#blur2)"/><rect x="1859" y="1131" width="170" height="515" rx="77" fill="#FFD6A5" opacity="0.33" transform="rotate(8.4 1859 1131)" filter="url(#blur2)"/><rect width="2560" height="1440" filter="url(#grain)" opacity=".045" style="mix-blend-mode:soft-light"/></svg>