<svg xmlns="http://www.w3.org/2000/svg" width="2560" height="1440" viewBox="0 0 2560 1440">
    <defs>
      <linearGradient id="bg" x1="0" y1="0" x2="1" y2="1">
        <stop offset="0%" stop-color="#091A1A"/><stop offset="52%" stop-color="#0B525B"/><stop offset="100%" stop-color="#091A1A"/>
      </linearGradient>
      <radialGradient id="r1"><stop offset="0%" stop-color="#0B7A75" stop-opacity=".95"/><stop offset="100%" stop-color="#0B7A75" stop-opacity="0"/></radialGradient>
      <radialGradient id="r2"><stop offset="0%" stop-color="#9CEAEF" stop-opacity=".82"/><stop offset="100%" stop-color="#9CEAEF" stop-opacity="0"/></radialGradient>
      <linearGradient id="g1" x1="0" y1="0" x2="1" y2="0"><stop stop-color="#0B7A75"/><stop offset="1" stop-color="#9CEAEF"/></linearGradient>
      <filter id="blur"><feGaussianBlur stdDeviation="67.4"/></filter>
      <filter id="blur2"><feGaussianBlur stdDeviation="34.1"/></filter>
      <filter id="grain">
        <feTurbulence type="fractalNoise" baseFrequency=".9" numOctaves="3" seed="231"/>
        <feColorMatrix type="saturate" values="0"/>
      </filter>
    </defs><rect width="2560" height="1440" fill="url(#bg)"/><path d="M 0 922 Q 640 792 1280 922 T 2560 922 L 2560 1440 L 0 1440 Z" fill="#0B525B" opacity="0.22"/><path d="M 0 1015 Q 640 886 1280 1015 T 2560 1015 L 2560 1440 L 0 1440 Z" fill="#0B7A75" opacity="0.30"/><path d="M 0 1109 Q 640 979 1280 1109 T 2560 1109 L 2560 1440 L 0 1440 Z" fill="#091A1A" opacity="0.38"/><path d="M 0 1202 Q 640 1073 1280 1202 T 2560 1202 L 2560 1440 L 0 1440 Z" fill="#0B525B" opacity="0.46"/><path d="M 0 1296 Q 640 1166 1280 1296 T 2560 1296 L 2560 1440 L 0 1440 Z" fill="#0B7A75" opacity="0.54"/><path d="M 0 1390 Q 640 1260 1280 1390 T 2560 1390 L 2560 1440 L 0 1440 Z" fill="#091A1A" opacity="0.62"/><circle cx="1843" cy="374" r="158" fill="#9CEAEF" opacity=".82" filter="url(#blur2)"/><rect width="2560" height="1440" filter="url(#grain)" opacity=".045" style="mix-blend-mode:soft-light"/></svg>